<svg width="55" height="55" viewBox="0 0 55 55" fill="none" xmlns="http://www.w3.org/2000/svg">
<path d="M16.3231 50.1182C15.1856 50.1182 14.2188 49.72 13.4225 48.9238C12.6263 48.1275 12.2281 47.1607 12.2281 46.0232C12.2281 44.8857 12.6263 43.9188 13.4225 43.1225C14.2188 42.3263 15.1856 41.9282 16.3231 41.9282C17.4227 41.9282 18.3801 42.3263 19.1953 43.1225C20.0105 43.9188 20.4181 44.8857 20.4181 46.0232C20.4181 47.1607 20.02 48.1275 19.2238 48.9238C18.4275 49.72 17.4606 50.1182 16.3231 50.1182ZM39.0731 50.1182C37.9356 50.1182 36.9688 49.72 36.1725 48.9238C35.3763 48.1275 34.9781 47.1607 34.9781 46.0232C34.9781 44.8857 35.3763 43.9188 36.1725 43.1225C36.9688 42.3263 37.9356 41.9282 39.0731 41.9282C40.1727 41.9282 41.1301 42.3263 41.9453 43.1225C42.7605 43.9188 43.1681 44.8857 43.1681 46.0232C43.1681 47.1607 42.77 48.1275 41.9738 48.9238C41.1775 49.72 40.2106 50.1182 39.0731 50.1182ZM13.3656 12.5807L19.6219 25.5482H36.0019L43.1113 12.5807H13.3656ZM11.6594 9.16817H45.1588C46.3721 9.16817 47.1399 9.53786 47.4622 10.2772C47.7845 11.0166 47.6802 11.8413 47.1494 12.7513L39.4713 26.5719C39.0921 27.2165 38.5613 27.7758 37.8788 28.2497C37.1963 28.7237 36.4569 28.9607 35.6606 28.9607H18.4275L15.2425 34.8757H43.1681V38.2882H15.7544C14.1619 38.2882 13.0149 37.7573 12.3134 36.6957C11.612 35.634 11.6215 34.4396 12.3419 33.1125L15.9819 26.4013L7.33688 8.08755H2.90063V4.67505H9.55501L11.6594 9.16817ZM19.6219 25.5482H36.0019H19.6219Z" fill="white"/>
</svg>
