<svg width="29" height="26" viewBox="0 0 29 26" fill="none" xmlns="http://www.w3.org/2000/svg">
<g clip-path="url(#clip0_39_6)">
<path d="M14.6047 20.2436C14.9735 20.2436 15.2846 20.1299 15.5381 19.9027C15.7916 19.6754 15.9183 19.3966 15.9183 19.066C15.9183 18.7355 15.7916 18.4566 15.5381 18.2293C15.2846 18.0021 14.9735 17.8885 14.6047 17.8885C14.236 17.8885 13.9249 18.0021 13.6714 18.2293C13.4179 18.4566 13.2911 18.7355 13.2911 19.066C13.2911 19.3966 13.4179 19.6754 13.6714 19.9027C13.9249 20.1299 14.236 20.2436 14.6047 20.2436ZM13.3948 15.7193H15.4344C15.4344 15.1821 15.5093 14.6915 15.6591 14.2473C15.8089 13.8032 16.2755 13.2918 17.0591 12.7134C17.7735 12.1763 18.2805 11.6495 18.5801 11.133C18.8797 10.6165 19.0295 10.0484 19.0295 9.42863C19.0295 8.3337 18.632 7.4557 17.8369 6.79462C17.0418 6.13353 15.9875 5.80299 14.6739 5.80299C13.5446 5.80299 12.5479 6.05606 11.6837 6.5622C10.8195 7.06835 10.1915 7.76558 9.7997 8.65392L11.6318 9.27369C11.8853 8.69524 12.2656 8.2459 12.7726 7.92569C13.2796 7.60548 13.8788 7.44537 14.5702 7.44537C15.3537 7.44537 15.9875 7.63647 16.4714 8.01866C16.9554 8.40085 17.1974 8.89149 17.1974 9.4906C17.1974 9.9451 17.0476 10.3738 16.748 10.7766C16.4484 11.1795 16.0105 11.5978 15.4344 12.0317C14.743 12.5688 14.2302 13.1007 13.8961 13.6276C13.5619 14.1544 13.3948 14.8516 13.3948 15.7193ZM14.4665 25.4186C12.5306 25.4186 10.7215 25.1036 9.03919 24.4735C7.35686 23.8434 5.89346 22.9705 4.64899 21.855C3.40452 20.7394 2.42508 19.4275 1.71066 17.9194C0.996246 16.4113 0.639038 14.7793 0.639038 13.0233C0.639038 11.2879 0.996246 9.6662 1.71066 8.1581C2.42508 6.65 3.40452 5.33816 4.64899 4.22258C5.89346 3.107 7.35686 2.229 9.03919 1.58857C10.7215 0.948143 12.5306 0.62793 14.4665 0.62793C16.3792 0.62793 18.1768 0.948143 19.8591 1.58857C21.5415 2.229 23.0049 3.107 24.2494 4.22258C25.4938 5.33816 26.479 6.65 27.205 8.1581C27.9309 9.6662 28.2939 11.2879 28.2939 13.0233C28.2939 14.7793 27.9309 16.4113 27.205 17.9194C26.479 19.4275 25.4938 20.7394 24.2494 21.855C23.0049 22.9705 21.5415 23.8434 19.8591 24.4735C18.1768 25.1036 16.3792 25.4186 14.4665 25.4186ZM14.4665 23.5593C17.7159 23.5593 20.4871 22.5264 22.7802 20.4605C25.0732 18.3946 26.2198 15.9155 26.2198 13.0233C26.2198 10.131 25.0732 7.65196 22.7802 5.58607C20.4871 3.52018 17.7159 2.48723 14.4665 2.48723C11.1709 2.48723 8.38815 3.52018 6.11815 5.58607C3.84815 7.65196 2.71315 10.131 2.71315 13.0233C2.71315 15.9155 3.84815 18.3946 6.11815 20.4605C8.38815 22.5264 11.1709 23.5593 14.4665 23.5593Z" fill="white"/>
</g>
<defs>
<clipPath id="clip0_39_6">
<rect width="27.7895" height="24.7907" fill="white" transform="translate(0.639038 0.62793)"/>
</clipPath>
</defs>
</svg>
