<svg width="94" height="94" viewBox="0 0 94 94" fill="none" xmlns="http://www.w3.org/2000/svg">
<path d="M43.2219 13.1636C39.2161 13.2684 35.5754 14.0638 32.4734 15.5064C30.8971 16.2367 29.7655 16.5223 28.4567 16.5223C27.918 16.5223 27.495 16.4717 26.6635 16.3054C21.0994 15.2099 16.5874 16.0451 13.3046 18.7747C12.3827 19.5411 11.3596 20.7631 10.7956 21.7754C10.7196 21.9092 10.6546 22.0177 10.6473 22.0177C10.6401 22.0177 10.4882 21.9634 10.3111 21.8948C8.7854 21.3127 6.80055 21.0054 5.95817 21.2187C5.62555 21.3054 5.33632 21.4464 5.03986 21.6706C4.71086 21.9164 4.72532 21.8803 4.80847 22.3467C4.9097 22.9251 5.0507 24.0025 5.10132 24.6099L5.1447 25.1269L5.38332 25.239C5.8027 25.4342 6.02324 25.4884 6.60532 25.5463C7.44409 25.6258 7.98278 25.756 8.79624 26.0741L9.2554 26.2549L9.23009 26.4935C9.17947 26.9346 9.20117 28.1494 9.26986 28.5977C9.6097 30.8609 10.6871 32.8024 12.5996 34.5992C13.8252 35.7525 15.3799 36.7829 17.3177 37.7338C18.4168 38.2724 19.8593 39.1112 20.4848 39.5704C21.0813 40.0114 21.2259 40.2103 21.7249 41.2588C22.9866 43.9269 25.8536 47.3001 29.4292 50.3298C29.9065 50.7311 30.973 51.5951 31.0453 51.6421C31.1068 51.6783 31.8407 51.3168 32.2312 51.0564C32.6035 50.8106 33.0229 50.3876 33.2869 49.9971C33.4676 49.7332 33.84 49.0933 33.84 49.0535C33.84 49.0427 33.7062 48.9306 33.5436 48.8041C30.8754 46.7541 28.6122 44.6174 27.0467 42.6615C26.2079 41.6167 25.5933 40.6622 25.1197 39.6608C24.7473 38.8762 24.6461 38.6918 24.4075 38.3267C23.9953 37.6904 23.4494 37.1155 22.8131 36.6383C21.996 36.0237 20.3655 35.0584 18.9952 34.3714C17.1405 33.4459 15.9077 32.6108 14.8954 31.5984C14.0132 30.7199 13.4746 29.8848 13.1672 28.9231C13.0082 28.4169 12.9431 27.9758 12.9431 27.3721C12.9431 26.3381 13.1853 25.3728 13.7204 24.2628C15.0472 21.5224 17.1948 20.1015 20.6439 19.6785C21.3019 19.599 23.1385 19.5881 23.8254 19.6604C24.5159 19.7364 25.3981 19.8738 26.1754 20.0256C27.0684 20.2064 27.5601 20.2534 28.5073 20.2534C29.8522 20.2534 31.0092 20.0581 32.3035 19.6207C32.9145 19.411 33.1748 19.3061 33.9919 18.9338C34.8559 18.5361 35.3657 18.3336 36.1539 18.0769C39.4583 16.9887 43.4859 16.6416 47.7954 17.0682C51.9712 17.4804 56.4181 18.6626 60.7385 20.5064C62.604 21.3054 64.7696 22.3901 66.552 23.4168C66.8846 23.6084 67.3691 23.8832 67.6258 24.0242C69.4299 25.0221 70.8724 26.1573 72.1595 27.6034C73.2586 28.8327 74.0503 30.0221 74.7842 31.5442C75.3266 32.6614 75.7062 33.699 75.9809 34.8234L76.1219 35.391L76.3389 35.4705C77.2246 35.7923 78.9275 36.5949 79.7373 37.0685C79.9579 37.1951 80.1422 37.2854 80.1495 37.2674C80.1965 37.1336 79.9651 35.4416 79.7735 34.545C78.5479 28.8146 74.9289 23.8688 69.8492 20.9873C69.5419 20.8101 68.9707 20.4848 68.5839 20.2642C64.7407 18.0516 60.8939 16.3451 57.1375 15.1882C52.3182 13.7023 47.7737 13.0443 43.2219 13.1636Z" fill="white"/>
<path d="M45.8467 22.9251C44.3318 23.0083 42.6471 23.265 41.5118 23.5904C41.1033 23.706 40.7201 23.8507 40.749 23.876C40.7562 23.8832 40.8791 23.876 41.0165 23.8579C41.3744 23.8181 42.5639 23.8181 43.3484 23.8615C46.8626 24.0567 50.6732 24.7834 54.0138 25.897C54.4007 26.0271 54.8743 26.1754 55.0623 26.2296C56.1216 26.5224 57.5099 26.9924 58.6704 27.4552C61.6604 28.6447 64.9395 30.4668 67.0401 32.1118C67.2136 32.2492 67.3546 32.3468 67.3546 32.336C67.3546 32.2962 66.8593 31.649 66.599 31.349C65.2938 29.8341 63.7356 28.4747 61.9315 27.278C60.1708 26.1067 58.2872 25.1956 56.3457 24.5701C54.3031 23.9121 53.6848 23.7314 52.7846 23.5217C50.5611 23.0119 48.1316 22.8022 45.8467 22.9251Z" fill="white"/>
<path d="M20.6257 23.7747C22.6612 25.351 25.0401 26.3199 27.4046 26.5332C28.7857 26.6598 30.2969 26.4356 31.6563 25.9042C32.0974 25.7306 32.8747 25.3474 33.1711 25.1558C33.388 25.0148 33.5363 25.0365 31.9961 24.9822C30.3656 24.928 29.1653 24.8268 27.8927 24.6352C24.3026 24.1001 21.3127 23.7169 20.7704 23.7169C20.5679 23.7205 20.557 23.7241 20.6257 23.7747Z" fill="white"/>
<path d="M66.5231 35.7453C65.7494 35.7851 62.5064 36.1502 61.1181 36.3563C56.5989 37.0251 52.4339 38.1387 48.7643 39.6571C44.4295 41.4504 40.749 43.8293 38.117 46.5444C36.9565 47.7411 36.1286 48.8294 35.2681 50.2936C34.8342 51.0347 34.5884 51.3746 34.2016 51.7831C33.8436 52.1591 33.4496 52.4773 32.9904 52.7557C32.571 53.0124 32.477 53.0594 31.8696 53.3088C31.5912 53.4245 30.785 53.7969 30.08 54.1404C29.375 54.4838 28.3085 54.99 27.7119 55.2647C24.6533 56.6784 23.2216 57.5461 22.0683 58.6957C20.7776 59.9792 20.1124 61.3024 19.9172 62.98C19.8449 63.6054 19.9136 64.7443 20.0618 65.4023C20.0835 65.4963 20.0762 65.612 20.0437 65.753C19.7545 66.9786 19.7762 68.4175 20.1052 69.8709C20.3727 71.0567 20.8644 72.3908 21.4935 73.6454C22.9396 76.5268 25.521 78.4936 28.8508 79.2492C29.9065 79.4878 30.6729 79.5746 31.9419 79.5999C34.1112 79.6433 36.1575 79.4191 39.2631 78.8009C40.7201 78.5117 42.5314 78.3309 43.2111 78.4141C43.6486 78.4647 43.9812 78.5876 44.8127 78.9961C47.4989 80.323 50.901 81.1943 55.0262 81.6173C56.8664 81.8017 58.4499 81.8667 60.7566 81.8414C62.6944 81.8197 63.168 81.8017 64.7335 81.6679C70.1819 81.216 74.9831 80.0193 78.6708 78.1971C80.5002 77.2933 81.6969 76.4617 83.0237 75.1638C84.459 73.7611 85.5436 72.2354 86.5017 70.2686C87.89 67.4124 88.6456 64.1333 88.7107 60.7023C88.7469 58.8006 88.5842 57.1881 88.2082 55.7311L88.0961 55.3009L88.0889 54.1946C88.0816 53.0485 88.0563 52.7701 87.89 52.0254C87.5755 50.6045 86.7765 49.3066 85.6196 48.3341L85.4641 48.2039L85.5075 47.6905C85.5979 46.5734 85.3629 45.4164 84.8495 44.4331C83.3672 41.6058 80.1133 38.9557 76.1943 37.3831C73.1862 36.1791 69.7155 35.5898 66.5231 35.7453ZM68.8189 39.48C70.0879 39.5559 71.2412 39.7403 72.38 40.044C75.3916 40.8466 78.2948 42.4591 80.2254 44.3969C81.6896 45.8684 82.0584 46.9277 81.5776 48.3015C81.4655 48.6305 81.4257 49.0969 81.4872 49.397C81.5522 49.6971 81.7583 50.0839 81.9716 50.3044C82.0765 50.4057 82.2898 50.572 82.4489 50.6696C83.613 51.3818 84.1083 52.0507 84.2963 53.1678C84.3722 53.6017 84.3831 54.7586 84.3144 55.2973C83.9673 58.1173 82.6802 61.053 80.7858 63.3234C79.3758 65.0154 77.6874 66.3061 75.6736 67.2317C71.8594 68.9851 66.4689 70.1348 60.2685 70.5217C59.0139 70.5976 56.0059 70.6265 54.7369 70.5759C50.2575 70.3879 46.718 69.7407 44.3608 68.6742C43.757 68.4031 43.3087 68.2548 42.6254 68.1066C42.2747 68.0307 42.159 68.0234 41.125 68.0271C40.1236 68.0271 39.8922 68.0415 38.9377 68.1427C38.352 68.2078 37.506 68.3235 37.0577 68.4031C34.1943 68.9164 32.1589 69.1225 30.315 69.0791C28.9412 69.0466 27.9831 68.9092 27.0648 68.6055C25.5391 68.103 24.6642 67.3112 24.1182 65.9337C23.5868 64.5924 23.4964 63.3994 23.8579 62.5172C24.0749 61.993 24.487 61.5013 25.1703 60.9517C26.0489 60.2504 26.9889 59.7334 29.5377 58.5511C30.0836 58.2981 30.9947 57.8606 31.5623 57.5822C32.7229 57.0146 32.6976 57.0254 33.5146 56.6856C34.7692 56.1577 35.8574 55.4347 36.7829 54.5055C37.4626 53.8258 37.9182 53.2076 38.5219 52.1555C39.0245 51.2734 39.4258 50.6913 39.9826 50.0369C41.8119 47.893 44.4439 45.9298 47.6869 44.2921C52.4339 41.8914 57.8426 40.4055 64.3539 39.7186C64.8202 39.668 65.424 39.6029 65.6916 39.5704C66.6388 39.4583 67.8536 39.4221 68.8189 39.48ZM84.3072 65.3336C83.5986 68.103 82.3006 70.547 80.6086 72.2968C79.853 73.0814 79.1842 73.6092 78.2369 74.1804C72.7849 77.4596 62.3799 78.9383 53.6704 77.6729C51.2553 77.3222 49.0355 76.751 47.329 76.0351C47.0832 75.9303 46.5806 75.6953 46.2082 75.5073C45.4635 75.1313 44.8959 74.9252 44.2162 74.7842C43.0592 74.542 40.7526 74.6757 38.5942 75.1132C35.9659 75.6447 34.3028 75.8507 32.6144 75.8544C30.3801 75.858 28.6628 75.482 27.3504 74.7011C26.6996 74.3178 25.9151 73.5803 25.4523 72.9295C25.2318 72.6222 24.7184 71.7617 24.7401 71.7401C24.7473 71.7364 24.9245 71.8015 25.1378 71.8919C28.0084 73.0777 31.8986 73.1392 37.7446 72.0907C38.5617 71.9461 40.0512 71.7798 40.9081 71.7437C41.6999 71.7075 42.1843 71.8015 42.8966 72.1269C45.1851 73.1717 48.6197 73.9057 52.6039 74.2021C55.2539 74.401 58.3017 74.401 61.2446 74.2021C67.3004 73.7972 72.8645 72.5788 76.9896 70.7567C78.1791 70.2288 79.4445 69.4841 80.5508 68.6597C81.8523 67.6908 83.2334 66.317 84.2023 65.0371C84.3325 64.8636 84.4409 64.7298 84.4482 64.7334C84.4554 64.7407 84.3903 65.0082 84.3072 65.3336Z" fill="white"/>
<path d="M70.1927 47.9436C69.965 47.9979 69.4841 48.1606 69.3323 48.2365C69.1985 48.3016 69.184 48.3016 68.9237 48.2437C68.5116 48.1533 67.944 48.1823 67.6692 48.3088C67.2607 48.5004 66.7364 48.9849 66.5556 49.3428L66.4689 49.5163L66.3062 49.3898C66.1001 49.2343 65.8868 49.1403 65.6735 49.1078C65.5686 49.0933 65.4313 49.0391 65.3228 48.9668C65.0661 48.7933 64.8347 48.7354 64.4081 48.7354C63.9851 48.7354 63.5766 48.8258 63.3271 48.9704C63.1789 49.0572 62.9258 49.2958 62.7703 49.491L62.7017 49.5814L62.6583 49.4549C62.6366 49.3826 62.5679 49.2596 62.51 49.1837C62.2172 48.7824 61.4037 48.6595 60.9265 48.9379C60.5613 49.1512 60.2685 49.5669 60.2685 49.8706V50.0116L60.0588 49.8128C59.719 49.4874 59.4478 49.3862 58.9308 49.3862C58.2873 49.3862 57.857 49.5489 57.481 49.9285C57.2497 50.1635 57.0147 50.5467 57.0147 50.6949C57.0147 50.7781 57.0038 50.7781 56.7435 50.6805C56.5591 50.6118 56.4507 50.6009 56.0168 50.6009L55.5107 50.5973L55.1961 50.7528C54.9683 50.8649 54.8093 50.9769 54.6321 51.1505C54.4947 51.2843 54.3682 51.4216 54.3501 51.4614C54.314 51.5229 54.3067 51.5229 54.1693 51.4325C53.9777 51.3059 53.7066 51.2047 53.486 51.1758C53.11 51.1252 52.4484 51.3529 52.1086 51.6458C51.8338 51.8808 51.635 52.4159 51.6747 52.8136C51.7036 53.0883 51.8266 53.3089 52.1013 53.5836L52.34 53.8259L52.0471 53.8403C51.8844 53.8512 51.729 53.8693 51.7 53.8837C51.653 53.9018 51.6458 53.8584 51.6458 53.6089C51.6458 53.3486 51.6313 53.2872 51.5482 53.1389C51.2915 52.7051 50.6697 52.4123 50.1888 52.499C49.8164 52.5713 49.3717 52.9039 49.256 53.2004C49.1982 53.3595 49.1982 53.7355 49.256 53.8765C49.2813 53.9307 49.2597 53.9343 49.0355 53.9163C48.6993 53.8909 48.204 53.9813 47.9183 54.1223C47.6219 54.2669 47.264 54.6502 47.0868 55.0117C46.9675 55.2467 46.953 55.3082 46.953 55.5576C46.953 55.7926 46.9747 55.8866 47.0651 56.0999C47.1772 56.3711 47.4773 56.823 47.564 56.8592C47.6327 56.8845 47.6291 56.9423 47.5604 56.9423C47.4881 56.9423 47.2314 57.0725 47.0868 57.1809L46.9711 57.2641L47.0398 57.0869C47.1302 56.8519 47.1266 56.5374 47.0362 56.3349C46.9494 56.1469 46.6493 55.8252 46.4252 55.6806C45.9697 55.3877 45.1092 55.3877 44.5163 55.6769C44.2451 55.8107 43.8836 56.1831 43.7281 56.494C43.645 56.6567 43.6197 56.7543 43.6197 56.917C43.6197 57.1086 43.6124 57.1267 43.5473 57.105C43.0846 56.9568 42.799 56.9532 42.2711 57.0906C41.4757 57.3003 41.0238 57.7413 40.8322 58.4969C40.7743 58.7211 40.778 59.0067 40.8358 59.1586C40.8611 59.2164 40.8503 59.2164 40.7599 59.1803C40.702 59.1586 40.4923 59.1333 40.2935 59.1224C39.8813 59.1007 39.5596 59.1622 39.2559 59.314C38.869 59.5093 38.4388 60.0299 38.3557 60.4023C38.3159 60.5686 38.3195 60.6156 38.3846 60.7855L38.4569 60.9807L38.0483 60.9843C37.5892 60.9843 37.3289 61.0458 37.0324 61.2121C36.8047 61.3423 36.454 61.7146 36.3383 61.9533C36.2913 62.0509 36.2479 62.134 36.2443 62.1413C36.2407 62.1449 36.143 62.1015 36.0237 62.04C35.485 61.7653 35.0006 61.8339 34.5559 62.2497C34.31 62.4811 34.2233 62.6546 34.2233 62.9258C34.2233 63.3271 34.4691 63.6453 34.9536 63.8766C35.1994 63.9959 35.2645 64.0104 35.5031 64.0104C36.0093 64.0104 36.425 63.7971 36.595 63.4536L36.689 63.2729L36.8336 63.3813C36.9131 63.4392 37.0469 63.5115 37.13 63.5404C37.4952 63.6706 38.1604 63.638 38.6666 63.4681L38.9197 63.3849L39.0751 63.5296C39.1619 63.6091 39.339 63.7248 39.4728 63.7863C39.7946 63.9345 40.044 63.9526 40.3839 63.8513C40.5285 63.8079 40.6478 63.7754 40.6514 63.7826C40.6587 63.7899 40.7237 63.8875 40.7997 64.0068C41.0889 64.4479 41.4396 64.625 42.0289 64.6214C42.4591 64.6214 42.7483 64.5636 43.0412 64.4262C43.3738 64.2671 43.7643 63.826 43.9667 63.3813L44.0463 63.2006L44.1403 63.2656C44.3283 63.3994 44.4765 63.4536 44.726 63.4826C45.0839 63.5296 45.6009 63.4717 45.966 63.3488L46.2697 63.2476L46.3348 63.3958C46.436 63.6272 46.7144 63.8658 47.1013 64.0538C47.4158 64.2093 47.4773 64.2237 47.7629 64.2382C48.4715 64.2743 49.4838 63.8947 49.7767 63.4898L49.8815 63.3452L50.0044 63.5332C50.1527 63.7609 50.4961 64.0032 50.789 64.0863C51.3638 64.2563 52.076 63.9598 52.2604 63.4753C52.3436 63.2548 52.3219 62.9077 52.2134 62.698L52.1339 62.5462H52.2749C52.3508 62.5462 52.4629 62.5353 52.5243 62.5245L52.6328 62.5028L52.6147 62.7233C52.5967 62.9186 52.6075 62.9692 52.7087 63.1789C52.8425 63.45 53.1317 63.7284 53.4354 63.8766C53.627 63.9706 53.656 63.9743 54.1947 63.9706C55.0153 63.967 55.4022 63.8441 55.724 63.4862C56.0277 63.1499 56.1831 62.6583 56.0783 62.3618C56.0566 62.2967 56.0421 62.2425 56.0457 62.2389C56.053 62.2353 56.118 62.2208 56.1903 62.2063C56.3241 62.181 56.3277 62.181 56.306 62.2859C56.2952 62.3473 56.3133 62.4883 56.3458 62.604C56.3928 62.7776 56.4434 62.8571 56.6133 63.0198C56.7254 63.1283 56.9134 63.2693 57.0327 63.3271C57.228 63.4211 57.2858 63.4319 57.6112 63.4319C57.933 63.4319 57.998 63.4211 58.2005 63.3271C58.3234 63.2693 58.4753 63.1644 58.5367 63.0957L58.6488 62.9692L58.8187 63.0523C58.9561 63.1246 59.0573 63.1427 59.4008 63.1536C60.3878 63.1897 61.0024 62.9403 61.2844 62.3907C61.3242 62.3184 61.364 62.2569 61.3748 62.2569C61.382 62.2569 61.4724 62.3003 61.5737 62.3509C61.9822 62.557 62.6077 62.6366 63.0596 62.5426C63.4356 62.463 63.8947 62.2027 64.249 61.8701C64.6106 61.5339 64.6648 61.0892 64.4153 60.583C64.2924 60.3408 64.2888 60.3191 64.3466 60.2757C64.4009 60.2359 64.4153 60.2396 64.4587 60.3119C64.6684 60.6445 65.2794 61.0277 65.7277 61.1073C66.1869 61.1868 66.975 61.0096 67.3872 60.7349C67.662 60.5541 67.7885 60.3986 67.9693 60.0443C68.226 59.5309 68.2404 59.1839 68.0199 58.8549C67.9512 58.75 67.9006 58.6669 67.9042 58.6633C67.9114 58.6596 67.9873 58.6379 68.0777 58.6163C68.1681 58.5909 68.2657 58.5656 68.2983 58.5512C68.3453 58.5331 68.3633 58.5584 68.3778 58.6669C68.4501 59.1152 69.0864 59.5599 69.6396 59.5526C70.2397 59.5454 70.7423 59.1911 70.811 58.7211C70.8399 58.5186 70.7748 58.2149 70.6627 58.0486L70.5796 57.9221L70.7278 57.8968C70.811 57.8859 71.0062 57.8173 71.1689 57.7486C71.4509 57.6293 71.4617 57.6256 71.6895 57.669C72.1161 57.7486 72.9332 57.6437 73.2839 57.4666C73.6671 57.2713 73.9708 56.8122 73.9997 56.3819C74.0106 56.2084 73.9997 56.0891 73.96 55.9987L73.9093 55.8722L74.2275 55.8866C74.5854 55.9047 74.9325 55.8396 75.4061 55.6697C76.1798 55.3913 76.5088 54.9683 76.516 54.2489C76.5196 53.9633 76.5088 53.8982 76.422 53.7246C76.3678 53.6162 76.328 53.5258 76.3316 53.5258C76.3353 53.5258 76.4799 53.4788 76.6498 53.4246C76.9716 53.3233 77.315 53.1353 77.4886 52.9726C77.6223 52.8461 77.7887 52.5063 77.8429 52.2496C77.9586 51.6856 77.7416 51.2011 77.2246 50.8829L77.0186 50.7564L77.0005 50.5323C76.9788 50.2539 76.8812 50.0623 76.6751 49.8706C76.3027 49.5272 75.6845 49.3862 75.3483 49.5633C75.2904 49.5959 75.2723 49.5778 75.2181 49.4296C74.9253 48.6595 74.3685 48.3666 73.1754 48.3594C72.691 48.3558 72.6367 48.363 72.4306 48.4498L72.2101 48.5402L72.0763 48.4245C71.6172 48.0268 70.7712 47.8135 70.1927 47.9436ZM62.9222 50.9697C63.0596 51.0963 63.2331 51.2156 63.3488 51.2626C63.497 51.3276 63.5621 51.3783 63.6272 51.4903C63.7393 51.6892 63.967 51.9278 64.1586 52.0543C64.3105 52.1592 64.3286 52.2062 64.2129 52.2062C64.1803 52.2062 64.0646 52.2459 63.9526 52.2929L63.7465 52.3761L63.7284 52.1989C63.6995 51.9639 63.5621 51.6783 63.4067 51.5156C63.0993 51.2083 62.5534 50.9553 62.0979 50.9191L61.8303 50.8938L62.0364 50.7926C62.1485 50.7383 62.304 50.6263 62.3799 50.5467L62.5209 50.4021L62.6077 50.5793C62.6546 50.6769 62.7993 50.8504 62.9222 50.9697ZM60.6481 50.6479C60.7674 50.7492 61.1181 50.9046 61.2338 50.9046C61.3423 50.9046 61.2519 50.948 60.8831 51.0709C60.6083 51.1649 60.4999 51.183 60.4493 51.1577C60.3842 51.1252 60.3842 51.1107 60.4348 50.995C60.4637 50.9227 60.489 50.7926 60.4927 50.7058C60.4963 50.6154 60.5071 50.5431 60.5143 50.5431C60.5252 50.5431 60.583 50.5901 60.6481 50.6479ZM74.6722 50.9625C74.6866 51.0023 74.6324 51.089 74.5131 51.2192C74.4155 51.3276 74.3323 51.4325 74.3323 51.4506C74.3323 51.465 74.2745 51.4433 74.2058 51.3927C74.1335 51.3457 74.0576 51.3023 74.0359 51.2951C73.9491 51.2662 74.0467 51.1613 74.213 51.1071C74.307 51.0746 74.4263 51.0167 74.477 50.9769C74.589 50.8902 74.6433 50.8866 74.6722 50.9625ZM67.3438 51.23L67.5173 51.2987L67.257 51.3023C67.1124 51.3023 66.9931 51.2951 66.9931 51.2879C66.9931 51.277 67.0112 51.2264 67.0293 51.1758C67.0582 51.0963 67.0763 51.0854 67.1196 51.1216C67.145 51.1433 67.2462 51.1939 67.3438 51.23ZM68.8731 51.3783C68.8189 51.559 68.8659 51.8157 68.9852 52.0109C69.0466 52.1013 69.09 52.1809 69.0828 52.1881C69.0756 52.1917 68.996 52.2387 68.902 52.2929L68.7285 52.3942V52.2713C68.7285 52.1158 68.5839 51.8157 68.4537 51.6964C68.273 51.5409 68.2332 51.5156 67.9982 51.4361L67.7704 51.3566L68.1681 51.3529C68.4067 51.3493 68.6309 51.3276 68.7285 51.2951C68.8189 51.2662 68.8948 51.2445 68.8984 51.2481C68.9057 51.2517 68.8912 51.3096 68.8731 51.3783ZM71.7871 51.794C71.8811 51.8229 72.0366 51.8446 72.1342 51.8446C72.3041 51.8446 72.3113 51.8483 72.2824 51.9242C72.2463 52.029 72.2463 52.3002 72.2824 52.4448L72.3113 52.5569L72.1197 52.5243C72.0149 52.5063 71.8305 52.499 71.7076 52.5026C71.5413 52.5099 71.4726 52.499 71.4292 52.452C71.3966 52.4195 71.3135 52.358 71.2448 52.3146L71.1183 52.2387L71.205 52.0796C71.2484 51.9929 71.299 51.8374 71.3135 51.7398L71.3388 51.559L71.4762 51.6494C71.5521 51.7 71.6895 51.7651 71.7871 51.794ZM57.9293 51.9567C57.9691 51.982 58.1246 52.0073 58.2728 52.0218L58.544 52.0435L58.5873 52.2134C58.6597 52.499 58.8802 52.7449 59.2164 52.9148C59.3863 53.0016 59.4044 53.0196 59.3466 53.0522C59.3104 53.0739 59.202 53.1462 59.1043 53.2113C59.0067 53.2799 58.92 53.3269 58.9163 53.3197C58.9127 53.3125 58.8657 53.2329 58.8115 53.1389C58.6813 52.9112 58.468 52.7376 58.0993 52.5569L57.7883 52.405L57.792 52.1628C57.792 51.9061 57.8028 51.8916 57.9293 51.9567ZM65.4746 52.4412C65.4746 52.5099 65.4421 52.5099 65.3517 52.4412C65.283 52.3906 65.283 52.3869 65.377 52.3869C65.4385 52.3869 65.4746 52.405 65.4746 52.4412ZM73.4176 53.2763C73.4068 53.2872 73.3743 53.2908 73.349 53.2799C73.32 53.2691 73.3309 53.2583 73.3707 53.2583C73.4104 53.2546 73.4321 53.2655 73.4176 53.2763ZM65.641 53.4788C65.6735 53.5439 65.7603 53.6523 65.829 53.7138L65.9555 53.8331L65.8326 53.7969C65.7675 53.7753 65.6337 53.7608 65.5433 53.7608H65.377L65.471 53.5656C65.5217 53.4571 65.5686 53.3667 65.5723 53.3667C65.5759 53.3631 65.6084 53.4173 65.641 53.4788ZM54.8454 53.5511C55.0551 53.6523 55.3986 53.7246 55.6878 53.7246H55.8577V53.862C55.8577 53.9379 55.8794 54.0826 55.9083 54.191L55.9553 54.379L55.8433 54.2706C55.6806 54.1115 55.2793 53.9379 55.0334 53.9163C54.5815 53.8765 54.0609 54.1621 53.8548 54.5634L53.75 54.7695L53.6162 54.5598C53.5439 54.4477 53.4246 54.3031 53.3523 54.2453L53.2185 54.1368L53.4788 54.0934C53.844 54.0283 54.285 53.815 54.4658 53.6089C54.5453 53.5186 54.6177 53.4463 54.6285 53.4499C54.6393 53.4535 54.737 53.5005 54.8454 53.5511ZM63.3416 53.8548C63.4211 53.9596 63.591 54.0681 63.7537 54.1223C63.8766 54.1621 63.8875 54.1729 63.826 54.2055C63.7031 54.2706 63.4826 54.4983 63.4103 54.6357L63.3416 54.7731L63.2114 54.6285C62.915 54.3031 62.3799 54.144 61.5592 54.1404C61.0422 54.1404 61.0241 54.1368 61.0422 54.0681C61.053 54.0283 61.0639 53.9452 61.0639 53.8837V53.768L61.3459 53.8584C61.9171 54.0428 62.3654 54.003 62.9077 53.7283L63.1789 53.5909L63.2331 53.6885C63.262 53.7391 63.3127 53.815 63.3416 53.8548ZM68.1645 54.2995C68.2223 54.4079 68.2223 54.4188 68.1717 54.4007C68.0271 54.3429 67.6258 54.2959 67.4812 54.3176C67.3944 54.332 67.2281 54.3899 67.1196 54.4441L66.9172 54.5489L66.7473 54.3646C66.6533 54.2669 66.505 54.1368 66.4146 54.0753C66.3243 54.0175 66.2845 53.9777 66.3243 53.9886C66.364 53.9994 66.4689 54.0283 66.5593 54.0536C66.8304 54.1259 67.304 54.1079 67.5535 54.0139C67.6728 53.9669 67.8174 53.8982 67.8789 53.862L67.9873 53.7969L68.0452 53.9886C68.0777 54.0898 68.132 54.2308 68.1645 54.2995ZM50.5142 54.6719C50.4817 54.7044 50.46 54.7044 50.4274 54.6719C50.3949 54.6393 50.4021 54.6285 50.4708 54.6285C50.5395 54.6285 50.5467 54.6393 50.5142 54.6719ZM58.967 54.7514C59.1116 54.8816 59.4297 55.0153 59.672 55.0515L59.8238 55.0696L59.7768 55.2359C59.7479 55.3263 59.7262 55.4383 59.7262 55.4853C59.7262 55.5685 59.7226 55.5685 59.484 55.5432C59.3466 55.5287 59.0646 55.5179 58.8513 55.5179C58.5837 55.5215 58.4608 55.5106 58.4608 55.4817C58.4608 55.46 58.4066 55.3588 58.3415 55.2612L58.2186 55.084L58.421 54.9503C58.5331 54.8779 58.6633 54.7767 58.7103 54.7225C58.7609 54.6719 58.8079 54.6285 58.8151 54.6285C58.826 54.6285 58.891 54.6827 58.967 54.7514ZM70.905 55.084C70.9953 55.1166 71.1942 55.1419 71.375 55.1455L71.6931 55.1527L71.5485 55.2142C71.469 55.2503 71.3316 55.3263 71.2412 55.3877L71.0821 55.4962L70.8001 55.3986C70.5579 55.3154 70.4566 55.3009 70.0843 55.3009C69.6251 55.2973 69.5492 55.319 69.137 55.5721L69.0213 55.6444L69.0394 55.4528C69.0503 55.3371 69.0394 55.1961 69.0069 55.0949L68.9563 54.9249L69.1949 54.9936C69.5456 55.0949 69.9794 55.0913 70.3012 54.9792C70.5506 54.896 70.5543 54.896 70.6519 54.9611C70.7061 54.9973 70.8182 55.0515 70.905 55.084ZM72.7741 55.0334C72.7777 55.0515 72.6693 55.0623 72.5355 55.0623L72.2896 55.0587L72.4849 54.99C72.5933 54.9503 72.6873 54.9105 72.7018 54.8996C72.7199 54.8779 72.7705 54.9719 72.7741 55.0334ZM54.0609 55.6372L54.2127 55.7963L54.0898 55.7709C54.0247 55.7601 53.8837 55.7493 53.7789 55.7493H53.5873L53.656 55.6155C53.6921 55.5432 53.7355 55.4275 53.7463 55.3588L53.768 55.2395L53.8403 55.3588C53.8801 55.4239 53.9813 55.5504 54.0609 55.6372ZM66.8268 55.9626C66.8847 56.0276 66.881 56.0313 66.722 56.0855L66.5556 56.1433L66.6569 56.0204C66.7111 55.9553 66.7581 55.8975 66.7617 55.8975C66.7617 55.8939 66.7943 55.9228 66.8268 55.9626ZM50.7347 56.0963C50.9263 56.2663 51.1686 56.4073 51.3566 56.4506C51.418 56.4651 51.6386 56.4759 51.8555 56.4759C52.0688 56.4759 52.2423 56.4868 52.2423 56.5049C52.2423 56.5229 52.217 56.6061 52.1881 56.6929C52.1556 56.7796 52.1303 56.9423 52.1303 57.058L52.1266 57.2677L52.0001 57.0942C51.6458 56.6169 51.1577 56.4073 50.5033 56.447L50.1924 56.4687L50.3479 56.2301C50.4347 56.1036 50.507 55.9806 50.507 55.9626C50.507 55.9047 50.5467 55.9264 50.7347 56.0963ZM55.0262 56.118C55.0262 56.1939 55.0262 56.1939 54.9466 56.1253C54.8997 56.0891 54.8563 56.0529 54.849 56.0493C54.8418 56.0421 54.878 56.0385 54.9286 56.0385C55.0045 56.0385 55.0262 56.0566 55.0262 56.118ZM68.6092 56.2048C68.602 56.212 68.5658 56.2084 68.5296 56.1976C68.4682 56.1723 68.4682 56.1686 68.5333 56.1216C68.5947 56.0783 68.602 56.0783 68.6128 56.1289C68.62 56.1614 68.62 56.1976 68.6092 56.2048ZM65.9953 56.7218C65.8073 57.1882 65.8543 57.6437 66.1254 57.9293L66.2628 58.0776L65.8976 58.1607C65.4855 58.2547 65.0661 58.4391 64.8347 58.6271L64.6793 58.7573L64.5527 58.6452L64.4298 58.5367L64.6359 58.4608C65.142 58.2692 65.3951 58.0559 65.4891 57.7341C65.5614 57.4991 65.5614 57.3039 65.4963 57.0472C65.4674 56.9351 65.4385 56.8266 65.4313 56.8013C65.424 56.7724 65.4927 56.7363 65.612 56.7037C65.7169 56.6784 65.8615 56.6206 65.9374 56.5844C66.0097 56.5446 66.0748 56.5121 66.0748 56.5085C66.0784 56.5085 66.0423 56.6061 65.9953 56.7218ZM55.6408 56.9604C55.6408 56.9713 55.601 56.9785 55.5504 56.9785C55.489 56.9785 55.4673 56.964 55.4817 56.9243C55.4998 56.8845 55.5215 56.8809 55.5721 56.9098C55.6083 56.9279 55.6408 56.9532 55.6408 56.9604ZM62.1485 57.0653C62.1485 57.1448 62.1051 57.1556 61.9858 57.105L61.8773 57.058L61.9858 57.0399C62.0473 57.0327 62.1051 57.0219 62.1232 57.0183C62.1376 57.0183 62.1485 57.0363 62.1485 57.0653ZM48.9885 57.2316C48.8981 57.3617 48.8981 57.3581 48.8077 57.2677C48.6993 57.1593 48.6884 57.1701 49.0174 57.1303C49.05 57.1267 49.0391 57.1593 48.9885 57.2316ZM57.2641 57.3039C57.3111 57.4846 57.528 57.857 57.6437 57.951C57.698 57.998 57.6907 58.0089 57.5533 58.0884C57.4738 58.1318 57.3979 58.1716 57.3906 58.1716C57.3834 58.1716 57.3762 58.1318 57.3762 58.0812C57.3762 57.8823 57.0978 57.4666 56.8556 57.3003L56.7254 57.2135L56.9532 57.1737C57.0761 57.152 57.1882 57.1303 57.199 57.1267C57.2099 57.1267 57.2388 57.2026 57.2641 57.3039ZM52.3508 58.0161C52.2423 58.0631 52.152 58.0993 52.1483 58.0993C52.1447 58.0993 52.1664 58.0125 52.1953 57.9076C52.2206 57.8064 52.2387 57.6907 52.2279 57.6546C52.2206 57.6184 52.2857 57.6654 52.3797 57.763L52.5497 57.9366L52.3508 58.0161ZM46.718 57.7196C46.7 57.8209 46.7036 57.8173 46.6204 57.7847C46.5662 57.7666 46.5662 57.7558 46.6421 57.6979C46.6891 57.6618 46.7325 57.6293 46.7325 57.6293C46.7361 57.6293 46.7289 57.669 46.718 57.7196ZM62.9692 58.4246C62.9945 58.4246 62.9041 58.5331 62.7703 58.6669C62.4847 58.9489 62.4124 59.1296 62.4522 59.4369L62.4775 59.6177H62.3582H62.2389L62.2497 59.2959C62.257 59.0682 62.2461 58.938 62.2063 58.844C62.1521 58.7139 62.1521 58.7139 62.2497 58.6633C62.398 58.5873 62.539 58.4319 62.5643 58.3162L62.586 58.2113L62.7559 58.3198C62.8463 58.3776 62.9439 58.4246 62.9692 58.4246ZM49.1982 58.7356C49.3103 58.8296 49.4079 58.9091 49.4151 58.9127C49.4223 58.9199 49.2994 58.9489 49.144 58.985C48.627 59.0971 48.1353 59.3936 47.94 59.7081L47.8641 59.831L47.734 59.7406C47.6617 59.6936 47.593 59.6539 47.5749 59.6539C47.5604 59.6539 47.5713 59.5779 47.6038 59.4876C47.6363 59.3899 47.6544 59.2562 47.6436 59.1513L47.6255 58.9778L47.7665 59.0139C48.0738 59.0899 48.7137 58.8983 48.8873 58.6777C48.9343 58.6199 48.974 58.5729 48.9813 58.5729C48.9849 58.5693 49.0825 58.6452 49.1982 58.7356ZM51.5771 58.9778C51.5807 59.1658 51.6458 59.3357 51.7796 59.5056L51.8483 59.596L51.6024 59.7153L51.3566 59.8383L51.3023 59.7551C51.183 59.5743 50.9553 59.3538 50.7492 59.2309L50.5359 59.0971L50.7962 59.0537C51.0673 59.0067 51.4687 58.8729 51.5048 58.8187C51.5518 58.7428 51.5771 58.8006 51.5771 58.9778ZM54.661 59.4659L54.8707 59.5707L54.708 59.784C54.4477 60.1239 54.3935 60.2757 54.3935 60.63C54.3971 60.8867 54.4116 60.9735 54.4911 61.1434L54.5887 61.3531H54.426H54.2597L54.285 61.2049C54.3248 60.9771 54.314 60.6481 54.267 60.4963C54.2055 60.3119 54.032 60.0841 53.8295 59.9359L53.6596 59.8093L53.7861 59.7081C53.9524 59.5779 54.05 59.361 54.05 59.1188V58.9272L54.2525 59.1441C54.3754 59.2779 54.5345 59.4008 54.661 59.4659ZM44.0137 59.7153C44.0282 59.7732 44.0463 59.8455 44.0607 59.8853C44.0752 59.9359 44.0463 59.925 43.9306 59.831C43.7787 59.7117 43.7787 59.7117 43.8619 59.6647C43.9776 59.6033 43.9884 59.6069 44.0137 59.7153ZM41.9457 60.0046C42 60.019 41.9963 60.0335 41.9277 60.1528L41.8517 60.2829L41.8264 60.1781C41.812 60.1166 41.7903 60.0371 41.7758 60.0009C41.7505 59.9431 41.7577 59.9359 41.8156 59.9576C41.8517 59.9756 41.9096 59.9937 41.9457 60.0046ZM58.5982 60.1962C58.656 60.2866 58.7898 60.4239 58.8983 60.4999L59.0935 60.6445L58.8549 60.7638C58.6271 60.8759 58.374 61.1073 58.186 61.3712L58.1137 61.476L57.9113 61.4109L57.7088 61.3495L57.8498 61.0819C58.027 60.7529 58.0812 60.4673 58.0161 60.2106L57.9691 60.0299L58.233 60.0335H58.497L58.5982 60.1962ZM44.632 60.6228C44.8344 60.7204 44.9971 60.771 45.2466 60.8072L45.4635 60.8397L45.2827 60.8433C44.8778 60.8542 44.4657 60.9879 44.1873 61.1976L44.068 61.288L44.1837 61.0783C44.2849 60.9012 44.303 60.8325 44.303 60.6264L44.3066 60.3806L44.397 60.4637C44.4476 60.5107 44.5524 60.583 44.632 60.6228ZM42.1554 61.2157L42.3362 61.3856L42.1663 61.4073C41.595 61.4796 41.2227 61.6532 40.9551 61.9641L40.825 62.1159L40.6912 62.0256C40.5321 61.9171 40.1995 61.7869 40.0657 61.7833C40.0115 61.7797 40.1272 61.758 40.3224 61.7327C40.7888 61.6676 41.0238 61.5953 41.2371 61.4543C41.4468 61.3133 41.6637 61.0349 41.7469 60.8072L41.8083 60.6373L41.8915 60.8433C41.9457 60.9807 42.0325 61.1 42.1554 61.2157ZM45.8612 60.8795C45.872 60.9012 45.825 60.9048 45.7455 60.8939C45.5647 60.865 45.5467 60.8469 45.7093 60.8469C45.7817 60.8469 45.8467 60.8614 45.8612 60.8795ZM43.8583 61.523C43.7968 61.5989 43.7173 61.7002 43.6811 61.7472L43.616 61.8339L43.4642 61.7219L43.3123 61.6134L43.5546 61.5375C43.692 61.4977 43.833 61.4399 43.8727 61.4109C43.9848 61.3278 43.9812 61.3712 43.8583 61.523ZM46.9639 61.6206C46.9639 61.6604 46.8952 61.6749 46.8735 61.6423C46.8627 61.6243 46.8771 61.6062 46.906 61.6062C46.9386 61.6062 46.9639 61.6134 46.9639 61.6206ZM50.6986 61.8773C50.807 62.0075 50.8179 62.04 50.7528 62.04C50.6624 62.04 50.337 62.2136 50.2105 62.3256L50.0803 62.4377L50.037 62.2642C50.0153 62.1702 49.9683 62.0436 49.9285 61.9858L49.8634 61.8846L50.1924 61.7689C50.4817 61.6713 50.5287 61.6604 50.5612 61.7074C50.5829 61.7363 50.6407 61.8159 50.6986 61.8773ZM39.715 61.7869C39.6174 61.8303 39.5885 61.8303 39.5885 61.7869C39.5885 61.7653 39.6319 61.7508 39.6897 61.7544C39.7765 61.7544 39.7801 61.758 39.715 61.7869Z" fill="white"/>
<path d="M79.2204 49.679C79.1083 49.7224 78.9456 49.8344 78.819 49.9501C78.5804 50.1707 78.2912 50.5864 78.3201 50.666C78.3527 50.7455 78.678 50.901 78.989 50.9805C79.506 51.1179 79.8784 51.0203 80.276 50.6479C80.493 50.4454 80.7822 50.0188 80.746 49.9574C80.7135 49.9067 80.3267 49.7224 80.1206 49.6609C79.8494 49.5814 79.459 49.5886 79.2204 49.679Z" fill="white"/>
<path d="M32.0143 63.544C31.9565 63.5512 31.7287 63.5765 31.5081 63.5982C30.3729 63.7103 29.216 63.9959 28.0916 64.437C27.3649 64.7226 26.1791 65.3408 25.5681 65.7566C25.4198 65.8578 25.4162 65.8651 25.4958 65.8867C25.8392 65.9771 27.7518 65.8181 28.7279 65.6192C30.3187 65.2902 32.0107 64.5888 33.3122 63.7175L33.6051 63.5223L32.8639 63.5259C32.4554 63.5295 32.0758 63.5404 32.0143 63.544Z" fill="white"/>
</svg>
