<svg width="47" height="41" viewBox="0 0 47 41" fill="none" xmlns="http://www.w3.org/2000/svg">
<path d="M23.3225 27.8148C26.6208 25.4619 29.1103 23.2 30.7911 21.0292C32.472 18.8583 33.3124 16.8345 33.3124 14.9578C33.3124 13.3052 32.9715 11.9046 32.2896 10.7562C31.6078 9.60774 30.7673 8.66938 29.7684 7.9411C28.7694 7.21282 27.6832 6.68761 26.5098 6.36549C25.3363 6.04336 24.2739 5.8823 23.3225 5.8823C22.3711 5.8823 21.3087 6.04336 20.1353 6.36549C18.9619 6.68761 17.8757 7.21282 16.8767 7.9411C15.8777 8.66938 15.0373 9.60774 14.3554 10.7562C13.6736 11.9046 13.3326 13.3052 13.3326 14.9578C13.3326 16.8345 14.1731 18.8583 15.8539 21.0292C17.5347 23.2 20.0243 25.4619 23.3225 27.8148ZM23.3225 30.5458C23.1005 30.5458 22.8944 30.5248 22.7041 30.4828C22.5138 30.4408 22.3394 30.3638 22.1808 30.2517C18.2166 27.5347 15.2751 24.9227 13.3564 22.4157C11.4377 19.9087 10.4784 17.4228 10.4784 14.9578C10.4784 13.0531 10.8669 11.3794 11.6439 9.93687C12.4209 8.49431 13.4278 7.28284 14.6646 6.30246C15.9015 5.32209 17.281 4.5868 18.8033 4.09661C20.3256 3.60642 21.832 3.36133 23.3225 3.36133C24.8131 3.36133 26.3195 3.60642 27.8417 4.09661C29.364 4.5868 30.7436 5.32209 31.9804 6.30246C33.2172 7.28284 34.2242 8.49431 35.0012 9.93687C35.7781 11.3794 36.1666 13.0531 36.1666 14.9578C36.1666 17.4228 35.2073 19.9087 33.2886 22.4157C31.3699 24.9227 28.4285 27.5347 24.4642 30.2517C24.3056 30.3638 24.1312 30.4408 23.9409 30.4828C23.7507 30.5248 23.5445 30.5458 23.3225 30.5458ZM23.3225 17.6468C24.2422 17.6468 25.0271 17.3597 25.6773 16.7855C26.3274 16.2113 26.6525 15.518 26.6525 14.7057C26.6525 13.8934 26.3274 13.2001 25.6773 12.6259C25.0271 12.0517 24.2422 11.7646 23.3225 11.7646C22.4028 11.7646 21.6179 12.0517 20.9678 12.6259C20.3176 13.2001 19.9926 13.8934 19.9926 14.7057C19.9926 15.518 20.3176 16.2113 20.9678 16.7855C21.6179 17.3597 22.4028 17.6468 23.3225 17.6468ZM11.9055 36.9743C11.4932 36.9743 11.1523 36.8553 10.8827 36.6172C10.6132 36.3791 10.4784 36.078 10.4784 35.7138C10.4784 35.3497 10.6132 35.0486 10.8827 34.8105C11.1523 34.5724 11.4932 34.4533 11.9055 34.4533H34.7395C35.1518 34.4533 35.4927 34.5724 35.7623 34.8105C36.0319 35.0486 36.1666 35.3497 36.1666 35.7138C36.1666 36.078 36.0319 36.3791 35.7623 36.6172C35.4927 36.8553 35.1518 36.9743 34.7395 36.9743H11.9055Z" fill="white"/>
</svg>
