<svg width="25" height="23" viewBox="0 0 25 23" fill="none" xmlns="http://www.w3.org/2000/svg">
<g clip-path="url(#clip0_39_4)">
<path d="M13.7676 22.3721C13.5303 22.3721 13.3029 22.3401 13.0854 22.2762C12.8678 22.2122 12.6602 22.0889 12.4624 21.9061L1.33875 11.6263C1.14099 11.4436 1.00751 11.2517 0.938294 11.0506C0.86908 10.8496 0.834473 10.6395 0.834473 10.4202V2.08666C0.834473 1.61151 1.00256 1.21859 1.33875 0.907912C1.67493 0.597234 2.1001 0.441895 2.61426 0.441895H11.6319C11.8692 0.441895 12.1065 0.473876 12.3438 0.537839C12.5811 0.601803 12.7986 0.72516 12.9964 0.907912L24.0608 11.1329C24.4563 11.4984 24.654 11.905 24.654 12.3528C24.654 12.8005 24.4563 13.2071 24.0608 13.5726L15.0431 21.9061C14.8849 22.0523 14.6921 22.1665 14.4647 22.2488C14.2373 22.331 14.0049 22.3721 13.7676 22.3721ZM13.827 20.7822L22.8446 12.4487L11.6319 2.08666H2.61426V10.4202L13.827 20.7822ZM5.7289 6.36306C6.14418 6.36306 6.50509 6.22142 6.81161 5.93816C7.11812 5.65489 7.27139 5.32137 7.27139 4.93759C7.27139 4.55381 7.11812 4.22029 6.81161 3.93703C6.50509 3.65376 6.14418 3.51213 5.7289 3.51213C5.31361 3.51213 4.95271 3.65376 4.64619 3.93703C4.33967 4.22029 4.18641 4.55381 4.18641 4.93759C4.18641 5.32137 4.33967 5.65489 4.64619 5.93816C4.95271 6.22142 5.31361 6.36306 5.7289 6.36306Z" fill="white"/>
</g>
<defs>
<clipPath id="clip0_39_4">
<rect width="23.8195" height="21.9302" fill="white" transform="translate(0.834473 0.441895)"/>
</clipPath>
</defs>
</svg>
